<?xml version="1.0" standalone="no"?>
<!DOCTYPE svg PUBLIC "-//W3C//DTD SVG 20010904//EN"
 "http://www.w3.org/TR/2001/REC-SVG-20010904/DTD/svg10.dtd">
<svg version="1.0" xmlns="http://www.w3.org/2000/svg"
 width="400pt" height="50pt" viewBox="0 0 427.000000 183.000000"
 preserveAspectRatio="xMidYMid meet">

<g transform="translate(0.000000,183.000000) scale(0.100000,-0.100000)"
fill="#ff7d1a" stroke="none">
<path d="M976 1454 c-18 -18 -20 -42 -6 -64 8 -12 10 -10 10 11 0 53 54 67 89
23 14 -18 21 -22 21 -11 0 21 -47 57 -76 57 -12 0 -30 -7 -38 -16z"/>
<path d="M1071 1364 c0 -11 3 -14 6 -6 3 7 2 16 -1 19 -3 4 -6 -2 -5 -13z"/>
<path d="M944 1345 c-12 -9 -44 -15 -89 -15 -68 -2 -69 -2 -40 -15 58 -27 123
-16 145 25 13 24 10 25 -16 5z"/>
<path d="M1039 1322 c5 -10 17 -47 26 -82 21 -88 35 -120 50 -120 7 0 29 25
49 56 21 31 46 59 57 61 23 6 25 31 4 40 -22 8 -50 -21 -65 -67 -27 -82 -53
-76 -66 15 -7 58 -26 100 -49 109 -12 4 -13 2 -6 -12z"/>
<path d="M771 1289 c0 -19 6 -57 15 -83 9 -26 14 -58 11 -72 -5 -29 19 -30 37
-1 9 14 5 28 -18 70 -17 28 -33 68 -37 87 l-7 35 -1 -36z"/>
<path d="M982 1181 c-17 -18 -37 -51 -43 -74 -17 -64 -22 -71 -75 -90 -62 -23
-71 -31 -100 -89 -40 -80 -80 -88 -132 -27 -32 38 -38 40 -71 34 -31 -6 -161
-70 -161 -80 0 -2 21 3 47 11 62 19 96 18 171 -6 63 -20 65 -20 106 -1 62 27
194 127 210 159 7 15 16 38 19 52 4 14 20 47 37 73 40 59 35 80 -8 38z"/>
<path d="M1675 1061 c-64 -28 -92 -111 -56 -169 34 -53 116 -70 162 -33 19 16
21 21 11 34 -11 13 -16 13 -40 1 -36 -18 -45 -18 -76 7 -69 54 7 150 86 108
16 -8 24 -8 35 4 14 13 13 17 -10 31 -31 21 -85 29 -112 17z"/>
<path d="M2125 1060 c-87 -36 -97 -163 -15 -205 50 -26 97 -20 136 19 28 28
34 41 34 78 0 52 -21 85 -66 104 -37 16 -59 17 -89 4z m69 -41 c70 -32 45
-139 -33 -139 -25 0 -61 45 -61 77 0 24 40 73 59 73 6 0 21 -5 35 -11z"/>
<path d="M2752 1060 c-12 -5 -27 -21 -34 -35 -18 -41 2 -70 62 -90 37 -12 50
-21 48 -33 -4 -23 -44 -27 -73 -8 -21 14 -25 14 -36 0 -19 -23 10 -45 65 -51
39 -5 51 -2 71 17 46 43 21 101 -51 114 -40 8 -52 23 -32 42 11 12 20 12 47 3
27 -9 35 -9 42 2 14 22 11 26 -22 38 -37 13 -56 13 -87 1z"/>
<path d="M3224 1056 c-44 -19 -64 -53 -64 -104 0 -37 6 -50 34 -78 26 -26 42
-34 70 -34 53 0 95 25 113 67 40 97 -58 192 -153 149z m99 -58 c23 -27 22 -59
-4 -92 -49 -62 -139 1 -108 77 21 49 75 57 112 15z"/>
<path d="M3670 1057 c-18 -9 -26 -22 -28 -48 -3 -41 16 -63 68 -76 38 -10 52
-39 25 -49 -9 -4 -32 0 -50 9 -24 11 -35 13 -44 4 -17 -17 -14 -25 19 -42 67
-35 140 -7 140 54 0 33 -13 46 -66 65 -27 9 -39 19 -39 32 0 19 9 21 65 13 39
-6 38 26 -1 40 -41 14 -58 14 -89 -2z"/>
<path d="M1180 950 l0 -110 25 0 c23 0 25 4 25 45 l0 45 50 0 c43 0 50 3 50
20 0 17 -7 20 -50 20 -47 0 -50 2 -50 25 0 23 3 25 50 25 43 0 50 3 50 20 0
18 -7 20 -75 20 l-75 0 0 -110z"/>
<path d="M1371 974 c4 -79 6 -87 32 -110 40 -34 90 -32 128 5 27 28 29 34 29
110 0 80 0 81 -25 81 -25 0 -25 -1 -25 -78 0 -80 -9 -102 -41 -102 -36 0 -49
28 -49 106 0 73 0 74 -26 74 l-26 0 3 -86z"/>
<path d="M1850 950 c0 -110 0 -110 24 -110 21 0 25 5 28 37 4 50 21 51 54 4
22 -31 36 -41 57 -41 l28 0 -40 58 c-23 32 -41 62 -41 68 0 6 16 25 35 44 41
39 43 50 13 50 -13 0 -41 -18 -65 -42 l-43 -42 0 42 c0 38 -2 42 -25 42 l-25
0 0 -110z"/>
<path d="M2330 950 l0 -110 25 0 c23 0 25 4 25 45 l0 45 50 0 c43 0 50 3 50
20 0 17 -7 20 -50 20 -47 0 -50 2 -50 25 0 23 3 25 50 25 43 0 50 3 50 20 0
18 -7 20 -75 20 l-75 0 0 -110z"/>
<path d="M2520 950 l0 -110 25 0 c23 0 25 4 25 45 l0 45 50 0 c43 0 50 3 50
20 0 17 -7 20 -50 20 -47 0 -50 2 -50 25 0 24 3 25 55 25 48 0 55 2 55 20 0
18 -7 20 -80 20 l-80 0 0 -110z"/>
<path d="M2920 950 l0 -110 25 0 c23 0 25 4 25 45 l0 45 45 0 45 0 0 -45 c0
-41 2 -45 25 -45 l25 0 0 110 0 110 -25 0 c-23 0 -25 -4 -25 -45 l0 -45 -45 0
-45 0 0 45 c0 41 -2 45 -25 45 l-25 0 0 -110z"/>
<path d="M3430 950 l0 -110 80 0 c73 0 80 2 80 20 0 18 -7 20 -55 20 -52 0
-55 1 -55 25 0 23 3 25 50 25 43 0 50 3 50 20 0 17 -7 20 -50 20 -47 0 -50 2
-50 25 0 24 3 25 55 25 48 0 55 2 55 20 0 18 -7 20 -80 20 l-80 0 0 -110z"/>
<path d="M947 1013 c-4 -3 -7 -19 -7 -35 0 -26 7 -32 55 -54 67 -29 77 -47 40
-76 -25 -19 -27 -26 -21 -67 7 -59 32 -181 39 -187 2 -2 20 -9 38 -14 l34 -9
-26 22 c-55 46 -59 86 -22 219 15 57 15 58 -11 102 -14 24 -43 58 -65 75 -42
33 -44 34 -54 24z"/>
<path d="M358 900 c-40 -42 -52 -90 -22 -90 11 0 13 6 9 19 -6 19 17 51 36 51
5 0 9 6 9 14 0 7 10 21 23 29 21 15 21 16 2 16 -11 1 -37 -17 -57 -39z"/>
<path d="M991 593 c-1 -19 4 -23 29 -23 17 0 45 -7 61 -16 17 -8 38 -14 47
-12 21 5 -72 38 -104 38 -13 0 -24 7 -27 18 -4 13 -5 11 -6 -5z"/>
</g>
</svg>
